<?xml version="1.0" encoding="UTF-8"?>
<svg width="39px" height="39px" viewBox="0 0 39 39" version="1.1" xmlns="http://www.w3.org/2000/svg" xmlns:xlink="http://www.w3.org/1999/xlink">
    <!-- Generator: Sketch 63.1 (92452) - https://sketch.com -->
    <title>yank copy</title>
    <desc>Created with Sketch.</desc>
    <g id="Page-1-Copy" stroke="none" stroke-width="1" fill="none" fill-rule="evenodd">
        <g id="playlist" transform="translate(-253.000000, -676.000000)" fill="#CBD5E0" fill-rule="nonzero">
            <g id="yank-copy" transform="translate(253.000000, 676.000000)">
                <path d="M36.2,-6.39488462e-14 L2.6,-6.39488462e-14 C1.16405965,-6.39488462e-14 -1.08713039e-12,1.16405965 -1.08713039e-12,2.6 L-1.08713039e-12,36.2 C-1.08713039e-12,37.6359403 1.16405965,38.8 2.6,38.8 L36.2,38.8 C37.6359403,38.8 38.8,37.6359403 38.8,36.2 L38.8,2.6 C38.8,1.16405965 37.6359403,-6.39488462e-14 36.2,-6.39488462e-14 Z M2.6,2 L36.2,2 C36.5313708,2 36.8,2.26862915 36.8,2.6 L36.8,36.2 C36.8,36.5313708 36.5313708,36.8 36.2,36.8 L2.6,36.8 C2.26862915,36.8 2,36.5313708 2,36.2 L2,2.6 C2,2.26862915 2.26862915,2 2.6,2 Z M19.26,26.76 C20.4733333,26.76 21.4766667,26.5066667 22.27,26 C23.0633333,25.4933333 23.46,24.74 23.46,23.74 C23.46,23.06 23.25,22.5133333 22.83,22.1 C22.41,21.6866667 21.9033333,21.4166667 21.31,21.29 C20.7166667,21.1633333 20.1233333,21.0666667 19.53,21 C18.9366667,20.9333333 18.43,20.84 18.01,20.72 C17.59,20.6 17.38,20.4066667 17.38,20.14 C17.38,19.94 17.5066667,19.7533333 17.76,19.58 C18.16,19.74 18.62,19.82 19.14,19.82 C20.2466667,19.82 21.1533333,19.5066667 21.86,18.88 C22.5666667,18.2533333 22.92,17.46 22.92,16.5 L22.92,16.5 L22.92,15.94 C22.92,15.1933333 22.7066667,14.5533333 22.28,14.02 C22.52,13.6733333 22.8533333,13.4066667 23.28,13.22 C23.5066667,13.1 23.62,12.9333333 23.62,12.72 C23.62,12.5466667 23.54,12.3833333 23.38,12.23 C23.22,12.0766667 23.0133333,12 22.76,12 C22.28,12 21.8466667,12.4466667 21.46,13.34 C20.8466667,12.8866667 20.0733333,12.66 19.14,12.66 C18.0333333,12.66 17.1366667,12.9666667 16.45,13.58 C15.7633333,14.1933333 15.42,14.98 15.42,15.94 L15.42,15.94 L15.42,16.5 C15.42,17.5666667 15.8133333,18.4066667 16.6,19.02 C15.9333333,19.4466667 15.6,19.9533333 15.6,20.54 C15.6,21.1533333 15.9133333,21.5933333 16.54,21.86 C15.5133333,22.3533333 15,23.0666667 15,24 C15,24.84 15.4066667,25.51 16.22,26.01 C17.0333333,26.51 18.0466667,26.76 19.26,26.76 Z M19.18,18.48 C18.6466667,18.48 18.2266667,18.2933333 17.92,17.92 C17.6133333,17.5466667 17.46,17.0666667 17.46,16.48 L17.46,16.48 L17.46,15.94 C17.46,15.38 17.6133333,14.9166667 17.92,14.55 C18.2266667,14.1833333 18.64,14 19.16,14 C19.6933333,14 20.1133333,14.1833333 20.42,14.55 C20.7266667,14.9166667 20.88,15.38 20.88,15.94 L20.88,15.94 L20.88,16.5 C20.88,17.0866667 20.7266667,17.5633333 20.42,17.93 C20.1133333,18.2966667 19.7,18.48 19.18,18.48 Z M19.24,25.36 C18.5733333,25.36 18.03,25.2166667 17.61,24.93 C17.19,24.6433333 16.98,24.26 16.98,23.78 C16.98,23.1133333 17.4266667,22.6133333 18.32,22.28 C18.76,22.3066667 19.11,22.3366667 19.37,22.37 C19.63,22.4033333 19.9433333,22.47 20.31,22.57 C20.6766667,22.67 20.9533333,22.8233333 21.14,23.03 C21.3266667,23.2366667 21.42,23.4933333 21.42,23.8 C21.42,24.28 21.22,24.66 20.82,24.94 C20.42,25.22 19.8933333,25.36 19.24,25.36 Z" id="Combined-Shape"></path>
            </g>
        </g>
    </g>
</svg>