<?xml version="1.0" encoding="UTF-8"?>
<svg width="39px" height="92px" viewBox="0 0 39 92" version="1.1" xmlns="http://www.w3.org/2000/svg" xmlns:xlink="http://www.w3.org/1999/xlink">
    <!-- Generator: Sketch 63.1 (92452) - https://sketch.com -->
    <title>io</title>
    <desc>Created with Sketch.</desc>
    <g id="Page-1-Copy" stroke="none" stroke-width="1" fill="none" fill-rule="evenodd">
        <g id="playlist/selected" transform="translate(-351.000000, -529.000000)">
            <g id="io" transform="translate(351.000000, 529.000000)">
                <g id="up-copy-2" fill="#CBD5E0" fill-rule="nonzero">
                    <path d="M36.2,-6.39488462e-14 L2.6,-6.39488462e-14 C1.16405965,-6.39488462e-14 2.77111667e-13,1.16405965 2.77111667e-13,2.6 L2.77111667e-13,36.2 C2.77111667e-13,37.6359403 1.16405965,38.8 2.6,38.8 L36.2,38.8 C37.6359403,38.8 38.8,37.6359403 38.8,36.2 L38.8,2.6 C38.8,1.16405965 37.6359403,-6.39488462e-14 36.2,-6.39488462e-14 Z M2.6,2 L36.2,2 C36.5313708,2 36.8,2.26862915 36.8,2.6 L36.8,36.2 C36.8,36.5313708 36.5313708,36.8 36.2,36.8 L2.6,36.8 C2.26862915,36.8 2,36.5313708 2,36.2 L2,2.6 C2,2.26862915 2.26862915,2 2.6,2 Z M18.99,14.14 C19.3233333,14.14 19.61,14.03 19.85,13.81 C20.09,13.59 20.21,13.3333333 20.21,13.04 C20.21,12.7333333 20.09,12.4733333 19.85,12.26 C19.61,12.0466667 19.3233333,11.94 18.99,11.94 C18.6566667,11.94 18.37,12.0466667 18.13,12.26 C17.89,12.4733333 17.77,12.7333333 17.77,13.04 C17.77,13.3333333 17.89,13.59 18.13,13.81 C18.37,14.03 18.6566667,14.14 18.99,14.14 Z M18.99,26 C19.2833333,26 19.5333333,25.9266667 19.74,25.78 C19.9466667,25.6333333 20.05,25.4733333 20.05,25.3 L20.05,25.3 L20.05,17.2 C20.05,17 19.95,16.8366667 19.75,16.71 C19.55,16.5833333 19.2966667,16.52 18.99,16.52 C18.6833333,16.52 18.4333333,16.5833333 18.24,16.71 C18.0466667,16.8366667 17.95,17 17.95,17.2 L17.95,17.2 L17.95,25.3 C17.95,25.4733333 18.05,25.6333333 18.25,25.78 C18.45,25.9266667 18.6966667,26 18.99,26 Z" id="i"></path>
                </g>
                <g id="up-copy" transform="translate(1.000000, 54.000000)">
                    <rect id="Rectangle" stroke="#CBD5E0" stroke-width="2" stroke-linejoin="round" x="0" y="0" width="36.8" height="36.8" rx="1.6"></rect>
                    <text id="o" font-family="Dosis-SemiBold, Dosis" font-size="20" font-weight="500" fill="#CBD5E0">
                        <tspan x="14.13" y="30">o</tspan>
                    </text>
                </g>
            </g>
        </g>
    </g>
</svg>