<?xml version="1.0" encoding="UTF-8"?>
<svg width="39px" height="92px" viewBox="0 0 39 92" version="1.1" xmlns="http://www.w3.org/2000/svg" xmlns:xlink="http://www.w3.org/1999/xlink">
    <!-- Generator: Sketch 63.1 (92452) - https://sketch.com -->
    <title>io</title>
    <desc>Created with Sketch.</desc>
    <g id="Page-1-Copy" stroke="none" stroke-width="1" fill="none" fill-rule="evenodd">
        <g id="playlist/selected" transform="translate(-351.000000, -529.000000)" fill="#CBD5E0" fill-rule="nonzero">
            <g id="io" transform="translate(351.000000, 529.000000)">
                <path d="M36.2,-6.39488462e-14 L2.6,-6.39488462e-14 C1.16405965,-6.39488462e-14 2.77111667e-13,1.16405965 2.77111667e-13,2.6 L2.77111667e-13,36.2 C2.77111667e-13,37.6359403 1.16405965,38.8 2.6,38.8 L36.2,38.8 C37.6359403,38.8 38.8,37.6359403 38.8,36.2 L38.8,2.6 C38.8,1.16405965 37.6359403,-6.39488462e-14 36.2,-6.39488462e-14 Z M2.6,2 L36.2,2 C36.5313708,2 36.8,2.26862915 36.8,2.6 L36.8,36.2 C36.8,36.5313708 36.5313708,36.8 36.2,36.8 L2.6,36.8 C2.26862915,36.8 2,36.5313708 2,36.2 L2,2.6 C2,2.26862915 2.26862915,2 2.6,2 Z M18.99,14.14 C19.3233333,14.14 19.61,14.03 19.85,13.81 C20.09,13.59 20.21,13.3333333 20.21,13.04 C20.21,12.7333333 20.09,12.4733333 19.85,12.26 C19.61,12.0466667 19.3233333,11.94 18.99,11.94 C18.6566667,11.94 18.37,12.0466667 18.13,12.26 C17.89,12.4733333 17.77,12.7333333 17.77,13.04 C17.77,13.3333333 17.89,13.59 18.13,13.81 C18.37,14.03 18.6566667,14.14 18.99,14.14 Z M18.99,26 C19.2833333,26 19.5333333,25.9266667 19.74,25.78 C19.9466667,25.6333333 20.05,25.4733333 20.05,25.3 L20.05,25.3 L20.05,17.2 C20.05,17 19.95,16.8366667 19.75,16.71 C19.55,16.5833333 19.2966667,16.52 18.99,16.52 C18.6833333,16.52 18.4333333,16.5833333 18.24,16.71 C18.0466667,16.8366667 17.95,17 17.95,17.2 L17.95,17.2 L17.95,25.3 C17.95,25.4733333 18.05,25.6333333 18.25,25.78 C18.45,25.9266667 18.6966667,26 18.99,26 Z" id="i"></path>
                <path d="M36.2,53 L2.6,53 C1.16405965,53 2.77111667e-13,54.1640597 2.77111667e-13,55.6 L2.77111667e-13,89.2 C2.77111667e-13,90.6359403 1.16405965,91.8 2.6,91.8 L36.2,91.8 C37.6359403,91.8 38.8,90.6359403 38.8,89.2 L38.8,55.6 C38.8,54.1640597 37.6359403,53 36.2,53 Z M2.6,55 L36.2,55 C36.5313708,55 36.8,55.2686292 36.8,55.6 L36.8,89.2 C36.8,89.5313708 36.5313708,89.8 36.2,89.8 L2.6,89.8 C2.26862915,89.8 2,89.5313708 2,89.2 L2,55.6 C2,55.2686292 2.26862915,55 2.6,55 Z M18.99,78.16 C20.0833333,78.16 21.0466667,77.7566667 21.88,76.95 C22.7133333,76.1433333 23.13,75.22 23.13,74.18 L23.13,74.18 L23.13,72.34 C23.13,71.2733333 22.7166667,70.35 21.89,69.57 C21.0633333,68.79 20.0966667,68.4 18.99,68.4 C17.8566667,68.4 16.8833333,68.7933333 16.07,69.58 C15.2566667,70.3666667 14.85,71.2866667 14.85,72.34 L14.85,72.34 L14.85,74.18 C14.85,75.2333333 15.2633333,76.16 16.09,76.96 C16.9166667,77.76 17.8833333,78.16 18.99,78.16 Z M18.99,76.3 C18.43,76.3 17.95,76.0833333 17.55,75.65 C17.15,75.2166667 16.95,74.7266667 16.95,74.18 L16.95,74.18 L16.95,72.34 C16.95,71.8066667 17.15,71.3266667 17.55,70.9 C17.95,70.4733333 18.43,70.26 18.99,70.26 C19.5366667,70.26 20.0133333,70.4733333 20.42,70.9 C20.8266667,71.3266667 21.03,71.8066667 21.03,72.34 L21.03,72.34 L21.03,74.18 C21.03,74.7266667 20.8266667,75.2166667 20.42,75.65 C20.0133333,76.0833333 19.5366667,76.3 18.99,76.3 Z" id="Combined-Shape"></path>
            </g>
        </g>
    </g>
</svg>