<?xml version="1.0" encoding="UTF-8"?>
<svg width="39px" height="92px" viewBox="0 0 39 92" version="1.1" xmlns="http://www.w3.org/2000/svg" xmlns:xlink="http://www.w3.org/1999/xlink">
    <!-- Generator: Sketch 63.1 (92452) - https://sketch.com -->
    <title>jk</title>
    <desc>Created with Sketch.</desc>
    <g id="Page-1-Copy" stroke="none" stroke-width="1" fill="none" fill-rule="evenodd">
        <g id="playlist/selected" transform="translate(-351.000000, -529.000000)" fill="#CBD5E0" fill-rule="nonzero">
            <g id="jk" transform="translate(351.000000, 529.000000)">
                <path d="M36.2,53 L2.6,53 C1.16405965,53 5.47117907e-13,54.1640597 5.47117907e-13,55.6 L5.47117907e-13,89.2 C5.47117907e-13,90.6359403 1.16405965,91.8 2.6,91.8 L36.2,91.8 C37.6359403,91.8 38.8,90.6359403 38.8,89.2 L38.8,55.6 C38.8,54.1640597 37.6359403,53 36.2,53 Z M2.6,55 L36.2,55 C36.5313708,55 36.8,55.2686292 36.8,55.6 L36.8,89.2 C36.8,89.5313708 36.5313708,89.8 36.2,89.8 L2.6,89.8 C2.26862915,89.8 2,89.5313708 2,89.2 L2,55.6 C2,55.2686292 2.26862915,55 2.6,55 Z M18.99,66.14 C19.3233333,66.14 19.61,66.03 19.85,65.81 C20.09,65.59 20.21,65.3333333 20.21,65.04 C20.21,64.7333333 20.09,64.4733333 19.85,64.26 C19.61,64.0466667 19.3233333,63.94 18.99,63.94 C18.6566667,63.94 18.37,64.0466667 18.13,64.26 C17.89,64.4733333 17.77,64.7333333 17.77,65.04 C17.77,65.3333333 17.89,65.59 18.13,65.81 C18.37,66.03 18.6566667,66.14 18.99,66.14 Z M17.19,82.5 C18.1366667,82.5 18.85,82.16 19.33,81.48 C19.81,80.8 20.05,79.88 20.05,78.72 L20.05,78.72 L20.05,69.2 C20.05,69 19.95,68.8366667 19.75,68.71 C19.55,68.5833333 19.2966667,68.52 18.99,68.52 C18.6833333,68.52 18.4333333,68.5833333 18.24,68.71 C18.0466667,68.8366667 17.95,69 17.95,69.2 L17.95,69.2 L17.95,78.72 C17.95,79.3866667 17.8833333,79.8833333 17.75,80.21 C17.6166667,80.5366667 17.3366667,80.7 16.91,80.7 C16.6833333,80.7 16.49,80.7866667 16.33,80.96 C16.17,81.1333333 16.09,81.3533333 16.09,81.62 C16.09,82.2066667 16.4566667,82.5 17.19,82.5 Z" id="up"></path>
                <path d="M36.2,-1.3500312e-13 L2.6,-1.3500312e-13 C1.16405965,-1.3500312e-13 5.47117907e-13,1.16405965 5.47117907e-13,2.6 L5.47117907e-13,36.2 C5.47117907e-13,37.6359403 1.16405965,38.8 2.6,38.8 L36.2,38.8 C37.6359403,38.8 38.8,37.6359403 38.8,36.2 L38.8,2.6 C38.8,1.16405965 37.6359403,-1.3500312e-13 36.2,-1.3500312e-13 Z M2.6,2 L36.2,2 C36.5313708,2 36.8,2.26862915 36.8,2.6 L36.8,36.2 C36.8,36.5313708 36.5313708,36.8 36.2,36.8 L2.6,36.8 C2.26862915,36.8 2,36.5313708 2,36.2 L2,2.6 C2,2.26862915 2.26862915,2 2.6,2 Z M22.88,26.12 C23.1333333,26.12 23.3933333,26.0033333 23.66,25.77 C23.9266667,25.5366667 24.06,25.3 24.06,25.06 C24.06,24.94 24.02,24.82 23.94,24.7 L23.94,24.7 L20.8,20.18 L23.38,17.88 C23.5,17.76 23.56,17.6133333 23.56,17.44 C23.56,17.2 23.4466667,16.9733333 23.22,16.76 C22.9933333,16.5466667 22.7666667,16.44 22.54,16.44 C22.3666667,16.44 22.22,16.5 22.1,16.62 L22.1,16.62 L17.92,20.46 L17.92,11.56 C17.92,11.36 17.8166667,11.1966667 17.61,11.07 C17.4033333,10.9433333 17.1466667,10.88 16.84,10.88 C16.5333333,10.88 16.2866667,10.9433333 16.1,11.07 C15.9133333,11.1966667 15.82,11.36 15.82,11.56 L15.82,11.56 L15.82,25.3 C15.82,25.4733333 15.9166667,25.6333333 16.11,25.78 C16.3033333,25.9266667 16.5466667,26 16.84,26 C17.1333333,26 17.3866667,25.9266667 17.6,25.78 C17.8133333,25.6333333 17.92,25.4733333 17.92,25.3 L17.92,25.3 L17.92,22.8 L19.38,21.48 L22.32,25.82 C22.4666667,26.02 22.6533333,26.12 22.88,26.12 Z" id="down"></path>
            </g>
        </g>
    </g>
</svg>