<?xml version="1.0" encoding="UTF-8"?>
<svg width="39px" height="92px" viewBox="0 0 39 92" version="1.1" xmlns="http://www.w3.org/2000/svg" xmlns:xlink="http://www.w3.org/1999/xlink">
    <!-- Generator: Sketch 63.1 (92452) - https://sketch.com -->
    <title>oi</title>
    <desc>Created with Sketch.</desc>
    <g id="Page-1-Copy" stroke="none" stroke-width="1" fill="none" fill-rule="evenodd">
        <g id="playlist/selected" transform="translate(-351.000000, -529.000000)" fill="#CBD5E0" fill-rule="nonzero">
            <g id="oi" transform="translate(351.000000, 529.000000)">
                <path d="M36.2,53 L2.6,53 C1.16405965,53 5.47117907e-13,54.1640597 5.47117907e-13,55.6 L5.47117907e-13,89.2 C5.47117907e-13,90.6359403 1.16405965,91.8 2.6,91.8 L36.2,91.8 C37.6359403,91.8 38.8,90.6359403 38.8,89.2 L38.8,55.6 C38.8,54.1640597 37.6359403,53 36.2,53 Z M2.6,55 L36.2,55 C36.5313708,55 36.8,55.2686292 36.8,55.6 L36.8,89.2 C36.8,89.5313708 36.5313708,89.8 36.2,89.8 L2.6,89.8 C2.26862915,89.8 2,89.5313708 2,89.2 L2,55.6 C2,55.2686292 2.26862915,55 2.6,55 Z M18.99,67.14 C19.3233333,67.14 19.61,67.03 19.85,66.81 C20.09,66.59 20.21,66.3333333 20.21,66.04 C20.21,65.7333333 20.09,65.4733333 19.85,65.26 C19.61,65.0466667 19.3233333,64.94 18.99,64.94 C18.6566667,64.94 18.37,65.0466667 18.13,65.26 C17.89,65.4733333 17.77,65.7333333 17.77,66.04 C17.77,66.3333333 17.89,66.59 18.13,66.81 C18.37,67.03 18.6566667,67.14 18.99,67.14 Z M18.99,79 C19.2833333,79 19.5333333,78.9266667 19.74,78.78 C19.9466667,78.6333333 20.05,78.4733333 20.05,78.3 L20.05,78.3 L20.05,70.2 C20.05,70 19.95,69.8366667 19.75,69.71 C19.55,69.5833333 19.2966667,69.52 18.99,69.52 C18.6833333,69.52 18.4333333,69.5833333 18.24,69.71 C18.0466667,69.8366667 17.95,70 17.95,70.2 L17.95,70.2 L17.95,78.3 C17.95,78.4733333 18.05,78.6333333 18.25,78.78 C18.45,78.9266667 18.6966667,79 18.99,79 Z" id="i"></path>
                <path d="M36.2,-1.3500312e-13 L2.6,-1.3500312e-13 C1.16405965,-1.3500312e-13 5.47117907e-13,1.16405965 5.47117907e-13,2.6 L5.47117907e-13,36.2 C5.47117907e-13,37.6359403 1.16405965,38.8 2.6,38.8 L36.2,38.8 C37.6359403,38.8 38.8,37.6359403 38.8,36.2 L38.8,2.6 C38.8,1.16405965 37.6359403,-1.3500312e-13 36.2,-1.3500312e-13 Z M2.6,2 L36.2,2 C36.5313708,2 36.8,2.26862915 36.8,2.6 L36.8,36.2 C36.8,36.5313708 36.5313708,36.8 36.2,36.8 L2.6,36.8 C2.26862915,36.8 2,36.5313708 2,36.2 L2,2.6 C2,2.26862915 2.26862915,2 2.6,2 Z M18.99,25.16 C20.0833333,25.16 21.0466667,24.7566667 21.88,23.95 C22.7133333,23.1433333 23.13,22.22 23.13,21.18 L23.13,21.18 L23.13,19.34 C23.13,18.2733333 22.7166667,17.35 21.89,16.57 C21.0633333,15.79 20.0966667,15.4 18.99,15.4 C17.8566667,15.4 16.8833333,15.7933333 16.07,16.58 C15.2566667,17.3666667 14.85,18.2866667 14.85,19.34 L14.85,19.34 L14.85,21.18 C14.85,22.2333333 15.2633333,23.16 16.09,23.96 C16.9166667,24.76 17.8833333,25.16 18.99,25.16 Z M18.99,23.3 C18.43,23.3 17.95,23.0833333 17.55,22.65 C17.15,22.2166667 16.95,21.7266667 16.95,21.18 L16.95,21.18 L16.95,19.34 C16.95,18.8066667 17.15,18.3266667 17.55,17.9 C17.95,17.4733333 18.43,17.26 18.99,17.26 C19.5366667,17.26 20.0133333,17.4733333 20.42,17.9 C20.8266667,18.3266667 21.03,18.8066667 21.03,19.34 L21.03,19.34 L21.03,21.18 C21.03,21.7266667 20.8266667,22.2166667 20.42,22.65 C20.0133333,23.0833333 19.5366667,23.3 18.99,23.3 Z" id="Combined-Shape"></path>
            </g>
        </g>
    </g>
</svg>