<?xml version="1.0" encoding="UTF-8"?>
<svg width="39px" height="92px" viewBox="0 0 39 92" version="1.1" xmlns="http://www.w3.org/2000/svg" xmlns:xlink="http://www.w3.org/1999/xlink">
    <!-- Generator: Sketch 63.1 (92452) - https://sketch.com -->
    <title>op</title>
    <desc>Created with Sketch.</desc>
    <g id="Page-1-Copy" stroke="none" stroke-width="1" fill="none" fill-rule="evenodd">
        <g id="playlist/selected" transform="translate(-351.000000, -529.000000)" fill="#CBD5E0" fill-rule="nonzero">
            <g id="op" transform="translate(351.000000, 529.000000)">
                <path d="M36.2,-6.39488462e-14 L2.6,-6.39488462e-14 C1.16405965,-6.39488462e-14 2.77111667e-13,1.16405965 2.77111667e-13,2.6 L2.77111667e-13,36.2 C2.77111667e-13,37.6359403 1.16405965,38.8 2.6,38.8 L36.2,38.8 C37.6359403,38.8 38.8,37.6359403 38.8,36.2 L38.8,2.6 C38.8,1.16405965 37.6359403,-6.39488462e-14 36.2,-6.39488462e-14 Z M2.6,2 L36.2,2 C36.5313708,2 36.8,2.26862915 36.8,2.6 L36.8,36.2 C36.8,36.5313708 36.5313708,36.8 36.2,36.8 L2.6,36.8 C2.26862915,36.8 2,36.5313708 2,36.2 L2,2.6 C2,2.26862915 2.26862915,2 2.6,2 Z M19.99,25.16 C21.0833333,25.16 22.0466667,24.7566667 22.88,23.95 C23.7133333,23.1433333 24.13,22.22 24.13,21.18 L24.13,21.18 L24.13,19.34 C24.13,18.2733333 23.7166667,17.35 22.89,16.57 C22.0633333,15.79 21.0966667,15.4 19.99,15.4 C18.8566667,15.4 17.8833333,15.7933333 17.07,16.58 C16.2566667,17.3666667 15.85,18.2866667 15.85,19.34 L15.85,19.34 L15.85,21.18 C15.85,22.2333333 16.2633333,23.16 17.09,23.96 C17.9166667,24.76 18.8833333,25.16 19.99,25.16 Z M19.99,23.3 C19.43,23.3 18.95,23.0833333 18.55,22.65 C18.15,22.2166667 17.95,21.7266667 17.95,21.18 L17.95,21.18 L17.95,19.34 C17.95,18.8066667 18.15,18.3266667 18.55,17.9 C18.95,17.4733333 19.43,17.26 19.99,17.26 C20.5366667,17.26 21.0133333,17.4733333 21.42,17.9 C21.8266667,18.3266667 22.03,18.8066667 22.03,19.34 L22.03,19.34 L22.03,21.18 C22.03,21.7266667 21.8266667,22.2166667 21.42,22.65 C21.0133333,23.0833333 20.5366667,23.3 19.99,23.3 Z" id="up"></path>
                <path d="M36.2,53 L2.6,53 C1.16405965,53 2.77111667e-13,54.1640597 2.77111667e-13,55.6 L2.77111667e-13,89.2 C2.77111667e-13,90.6359403 1.16405965,91.8 2.6,91.8 L36.2,91.8 C37.6359403,91.8 38.8,90.6359403 38.8,89.2 L38.8,55.6 C38.8,54.1640597 37.6359403,53 36.2,53 Z M2.6,55 L36.2,55 C36.5313708,55 36.8,55.2686292 36.8,55.6 L36.8,89.2 C36.8,89.5313708 36.5313708,89.8 36.2,89.8 L2.6,89.8 C2.26862915,89.8 2,89.5313708 2,89.2 L2,55.6 C2,55.2686292 2.26862915,55 2.6,55 Z M16.58,81.5 C16.8733333,81.5 17.1266667,81.43 17.34,81.29 C17.5533333,81.15 17.66,80.9866667 17.66,80.8 L17.66,80.8 L17.66,75.6 C17.8733333,76.0266667 18.2233333,76.3933333 18.71,76.7 C19.1966667,77.0066667 19.7266667,77.16 20.3,77.16 C21.2333333,77.16 22.0533333,76.7566667 22.76,75.95 C23.4666667,75.1433333 23.82,74.22 23.82,73.18 L23.82,73.18 L23.82,71.34 C23.82,70.26 23.47,69.3333333 22.77,68.56 C22.07,67.7866667 21.22,67.4 20.22,67.4 C19.62,67.4 19.0833333,67.5466667 18.61,67.84 C18.1366667,68.1333333 17.78,68.4933333 17.54,68.92 L17.54,68.92 L17.54,68.2 C17.54,68 17.4466667,67.8366667 17.26,67.71 C17.0733333,67.5833333 16.84,67.52 16.56,67.52 C16.28,67.52 16.0433333,67.5833333 15.85,67.71 C15.6566667,67.8366667 15.56,68 15.56,68.2 L15.56,68.2 L15.56,80.8 C15.56,80.9866667 15.6566667,81.15 15.85,81.29 C16.0433333,81.43 16.2866667,81.5 16.58,81.5 Z M19.68,75.3 C19.1466667,75.3 18.6766667,75.0966667 18.27,74.69 C17.8633333,74.2833333 17.66,73.9333333 17.66,73.64 L17.66,73.64 L17.66,71.34 C17.66,70.7133333 17.86,70.21 18.26,69.83 C18.66,69.45 19.12,69.26 19.64,69.26 C20.2,69.26 20.6866667,69.4733333 21.1,69.9 C21.5133333,70.3266667 21.72,70.8066667 21.72,71.34 L21.72,71.34 L21.72,73.18 C21.72,73.7266667 21.5133333,74.2166667 21.1,74.65 C20.6866667,75.0833333 20.2133333,75.3 19.68,75.3 Z" id="down"></path>
            </g>
        </g>
    </g>
</svg>