<?xml version="1.0" encoding="UTF-8"?>
<svg width="39px" height="39px" viewBox="0 0 39 39" version="1.1" xmlns="http://www.w3.org/2000/svg" xmlns:xlink="http://www.w3.org/1999/xlink">
    <!-- Generator: Sketch 63.1 (92452) - https://sketch.com -->
    <title>p</title>
    <desc>Created with Sketch.</desc>
    <g id="Page-1-Copy" stroke="none" stroke-width="1" fill="none" fill-rule="evenodd">
        <g id="playlist/selected" transform="translate(-246.000000, -643.000000)" fill="#CBD5E0" fill-rule="nonzero">
            <g id="down-copy" transform="translate(246.000000, 643.000000)">
                <path d="M36.2,-6.39488462e-14 L2.6,-6.39488462e-14 C1.16405965,-6.39488462e-14 2.77111667e-13,1.16405965 2.77111667e-13,2.6 L2.77111667e-13,36.2 C2.77111667e-13,37.6359403 1.16405965,38.8 2.6,38.8 L36.2,38.8 C37.6359403,38.8 38.8,37.6359403 38.8,36.2 L38.8,2.6 C38.8,1.16405965 37.6359403,-6.39488462e-14 36.2,-6.39488462e-14 Z M2.6,2 L36.2,2 C36.5313708,2 36.8,2.26862915 36.8,2.6 L36.8,36.2 C36.8,36.5313708 36.5313708,36.8 36.2,36.8 L2.6,36.8 C2.26862915,36.8 2,36.5313708 2,36.2 L2,2.6 C2,2.26862915 2.26862915,2 2.6,2 Z M16.58,28.5 C16.8733333,28.5 17.1266667,28.43 17.34,28.29 C17.5533333,28.15 17.66,27.9866667 17.66,27.8 L17.66,27.8 L17.66,22.6 C17.8733333,23.0266667 18.2233333,23.3933333 18.71,23.7 C19.1966667,24.0066667 19.7266667,24.16 20.3,24.16 C21.2333333,24.16 22.0533333,23.7566667 22.76,22.95 C23.4666667,22.1433333 23.82,21.22 23.82,20.18 L23.82,20.18 L23.82,18.34 C23.82,17.26 23.47,16.3333333 22.77,15.56 C22.07,14.7866667 21.22,14.4 20.22,14.4 C19.62,14.4 19.0833333,14.5466667 18.61,14.84 C18.1366667,15.1333333 17.78,15.4933333 17.54,15.92 L17.54,15.92 L17.54,15.2 C17.54,15 17.4466667,14.8366667 17.26,14.71 C17.0733333,14.5833333 16.84,14.52 16.56,14.52 C16.28,14.52 16.0433333,14.5833333 15.85,14.71 C15.6566667,14.8366667 15.56,15 15.56,15.2 L15.56,15.2 L15.56,27.8 C15.56,27.9866667 15.6566667,28.15 15.85,28.29 C16.0433333,28.43 16.2866667,28.5 16.58,28.5 Z M19.68,22.3 C19.1466667,22.3 18.6766667,22.0966667 18.27,21.69 C17.8633333,21.2833333 17.66,20.9333333 17.66,20.64 L17.66,20.64 L17.66,18.34 C17.66,17.7133333 17.86,17.21 18.26,16.83 C18.66,16.45 19.12,16.26 19.64,16.26 C20.2,16.26 20.6866667,16.4733333 21.1,16.9 C21.5133333,17.3266667 21.72,17.8066667 21.72,18.34 L21.72,18.34 L21.72,20.18 C21.72,20.7266667 21.5133333,21.2166667 21.1,21.65 C20.6866667,22.0833333 20.2133333,22.3 19.68,22.3 Z" id="p"></path>
            </g>
        </g>
    </g>
</svg>