<?xml version="1.0" encoding="UTF-8"?>
<svg width="10px" height="12px" viewBox="0 0 10 12" version="1.1" xmlns="http://www.w3.org/2000/svg" xmlns:xlink="http://www.w3.org/1999/xlink">
    <!-- Generator: Sketch 63.1 (92452) - https://sketch.com -->
    <title>icon / play</title>
    <desc>Created with Sketch.</desc>
    <g id="Symbols" stroke="none" stroke-width="1" fill="none" fill-rule="evenodd">
        <g id="button-/-focus" transform="translate(-124.000000, -14.000000)" fill="#B7791F">
            <g id="button-/-default">
                <g id="icon-/-pause" transform="translate(122.000000, 13.000000)">
                    <path d="M4.45833333,1.66666667 C4.94158249,1.66666667 5.33333333,2.05841751 5.33333333,2.54166667 L5.33333333,11.4583333 C5.33333333,11.9415825 4.94158249,12.3333333 4.45833333,12.3333333 L3.54166667,12.3333333 C3.05841751,12.3333333 2.66666667,11.9415825 2.66666667,11.4583333 L2.66666667,2.54166667 C2.66666667,2.05841751 3.05841751,1.66666667 3.54166667,1.66666667 L4.45833333,1.66666667 Z M10.4583333,1.66666667 C10.9415825,1.66666667 11.3333333,2.05841751 11.3333333,2.54166667 L11.3333333,11.4583333 C11.3333333,11.9415825 10.9415825,12.3333333 10.4583333,12.3333333 L9.54166667,12.3333333 C9.05841751,12.3333333 8.66666667,11.9415825 8.66666667,11.4583333 L8.66666667,2.54166667 C8.66666667,2.05841751 9.05841751,1.66666667 9.54166667,1.66666667 L10.4583333,1.66666667 Z" id="pause"></path>
                </g>
            </g>
        </g>
    </g>
</svg>