<?xml version="1.0" encoding="UTF-8"?>
<svg width="17px" height="12px" viewBox="0 0 17 12" version="1.1" xmlns="http://www.w3.org/2000/svg" xmlns:xlink="http://www.w3.org/1999/xlink">
    <!-- Generator: Sketch 63.1 (92452) - https://sketch.com -->
    <title>icon / sound</title>
    <desc>Created with Sketch.</desc>
    <g id="Symbols" stroke="none" stroke-width="1" fill="none" fill-rule="evenodd">
        <g id="list/card/:focus" transform="translate(-32.000000, -34.000000)">
            <g id="Group">
                <g id="icon-/-sound" transform="translate(30.000000, 30.000000)">
                    <g id="Group" transform="translate(2.380952, 4.761905)">
                        <path d="M6.48790496,0.372885199 C6.57646016,0.474282365 6.6252588,0.604342199 6.6252588,0.738965406 L6.6252588,9.8614582 C6.6252588,10.1688167 6.37609553,10.4179799 6.06873706,10.4179799 C5.93411385,10.4179799 5.80405402,10.3691813 5.70265685,10.2806261 L2.365,7.36629474 L0.556521739,7.36670057 C0.24916327,7.36670057 8.85851114e-17,7.1175373 0,6.81017883 L0,3.79024478 C-1.48662859e-16,3.48288631 0.24916327,3.23372304 0.556521739,3.23372304 L2.365,3.23329474 L5.70265685,0.319797506 C5.93415689,0.117616991 6.28572444,0.14138516 6.48790496,0.372885199 Z" id="Combined-Shape" fill="#1A202C"></path>
                        <path d="M9.27536232,3.3126294 C9.68338131,3.80415198 9.9378882,4.51323373 9.9378882,5.30020704 C9.9378882,6.08986626 9.68338131,6.79894802 9.27536232,7.28778468" id="Path-Copy-2" stroke="#1A202C" stroke-width="0.869565217" stroke-linecap="round"></path>
                        <path d="M11.26294,1.98757764 C12.0761778,2.80678194 12.5879917,3.98858486 12.5879917,5.30020704 C12.5879917,6.61406748 12.0761778,7.7958704 11.26294,8.61283644" id="Path-Copy" stroke="#1A202C" stroke-width="0.869565217" stroke-linecap="round"></path>
                        <path d="M13.2505176,0.66252588 C14.4709955,1.80783876 15.2380952,3.46101848 15.2380952,5.30020704 C15.2380952,7.1393956 14.4709955,8.79257532 13.2505176,9.9378882" id="Path-Copy-3" stroke="#1A202C" stroke-width="0.869565217" stroke-linecap="round" stroke-linejoin="round"></path>
                    </g>
                </g>
            </g>
        </g>
    </g>
</svg>